<svg width="281" height="59" viewBox="0 0 281 59" fill="none" xmlns="http://www.w3.org/2000/svg">
<circle cx="25" cy="32" r="25" fill="#467CFF"/>
<circle cx="50" cy="27" r="25" fill="#BBF764"/>
<path d="M115.128 45H89.4V12.84H115.128V17.496H94.584V26.52H114.408V31.128H94.584V40.344H115.128V45ZM124.35 45H119.166V21.144H123.918V28.536H124.254C124.974 24.504 128.142 20.664 134.19 20.664C140.814 20.664 144.078 25.128 144.078 30.648V45H138.894V32.04C138.894 27.576 136.878 25.32 131.934 25.32C126.702 25.32 124.35 28.008 124.35 33.192V45ZM164.009 45H157.673L146.537 21.144H152.249L160.745 39.96H161.129L169.625 21.144H175.241L164.009 45ZM183.084 18.36H177.9V12.84H183.084V18.36ZM183.084 45H177.9V21.144H183.084V45ZM199.164 45.48C191.484 45.48 187.116 42.456 187.116 36.936V36.792H192.3V37.176C192.3 40.296 194.172 41.304 199.164 41.304C203.82 41.304 205.212 40.344 205.212 38.232C205.212 36.264 204.06 35.64 200.652 35.16L194.124 34.296C189.612 33.72 186.876 31.8 186.876 27.816C186.876 23.64 190.668 20.664 198.012 20.664C205.308 20.664 209.724 23.592 209.724 29.256V29.4H204.588V29.112C204.588 26.28 203.148 24.792 197.868 24.792C193.5 24.792 191.964 25.752 191.964 28.008C191.964 29.88 192.924 30.552 196.524 31.032L202.044 31.8C207.708 32.52 210.3 34.44 210.3 38.376C210.3 42.84 205.884 45.48 199.164 45.48ZM219.225 18.36H214.041V12.84H219.225V18.36ZM219.225 45H214.041V21.144H219.225V45ZM236.217 45.48C228.297 45.48 222.969 40.44 222.969 33.096C222.969 25.656 228.297 20.664 236.217 20.664C244.185 20.664 249.513 25.656 249.513 33.096C249.513 40.44 244.185 45.48 236.217 45.48ZM236.217 40.872C242.025 40.872 244.425 38.136 244.425 33.096C244.425 28.008 242.025 25.224 236.217 25.224C230.457 25.224 228.057 28.008 228.057 33.096C228.057 38.136 230.457 40.872 236.217 40.872ZM258.459 45H253.275V21.144H258.027V28.536H258.363C259.083 24.504 262.251 20.664 268.299 20.664C274.923 20.664 278.187 25.128 278.187 30.648V45H273.003V32.04C273.003 27.576 270.987 25.32 266.043 25.32C260.811 25.32 258.459 28.008 258.459 33.192V45Z" fill="url(#paint0_linear_7_6)"/>
<defs>
<linearGradient id="paint0_linear_7_6" x1="87" y1="29.5" x2="281" y2="29.5" gradientUnits="userSpaceOnUse">
<stop stop-color="#BBF664"/>
<stop offset="1" stop-color="#467CFF"/>
</linearGradient>
</defs>
</svg>
